PathFileType	3	(X/Y/Z)	squats_2__view1_aligned.trc
DataRate	CameraRate	NumFrames	NumMarkers	Units	OrigDataRate	OrigDataStartFrame	OrigNumFrames
100.0	100.0	10	19	mm	100.0	920	1550
Frame#	Time	pelvis			neck			head			hip_left			hip_right			knee_left			knee_right			ankle_left			ankle_right			heel_left			heel_right			toe_left			toe_right			shoulder_left			shoulder_right			elbow_left			elbow_right			wrist_left			wrist_right			
		X1	Y1	Z1	X2	Y2	Z2	X3	Y3	Z3	X4	Y4	Z4	X5	Y5	Z5	X6	Y6	Z6	X7	Y7	Z7	X8	Y8	Z8	X9	Y9	Z9	X10	Y10	Z10	X11	Y11	Z11	X12	Y12	Z12	X13	Y13	Z13	X14	Y14	Z14	X15	Y15	Z15	X16	Y16	Z16	X17	Y17	Z17	X18	Y18	Z18	X19	Y19	Z19	
920	9.19000	192.053032	622.863785	-0.022470	166.967237	1047.436960	-321.420133	166.723039	1119.803360	-476.220988	112.485135	624.161448	4.481331	271.620918	621.566122	-4.526281	-19.983808	434.322237	-329.516787	339.425187	418.919664	-358.948294	25.890581	176.159755	-47.153252	300.334718	145.654725	-92.629265	38.579721	146.218179	0.856680	295.141733	117.935757	-40.738128	-44.954642	98.042337	-192.393206	298.304667	47.798317	-246.614361	-7.727880	1017.035717	-265.151718	345.627546	1004.590719	-283.467017	-136.340733	769.841099	-208.002713	422.947624	728.676698	-276.294358	-124.353677	638.037118	-428.318023	377.566643	582.813523	-482.390512
921	9.20000	190.989452	632.044862	2.091673	164.772858	1058.714055	-318.545441	164.291150	1132.064555	-473.088144	111.565174	633.437300	6.789622	270.413685	630.652424	-2.606254	-22.053323	436.964664	-323.126681	336.406821	422.464304	-354.075865	21.761179	175.486844	-43.184510	298.859867	145.340596	-90.837459	34.384877	145.142254	4.609017	293.764025	117.181344	-39.161600	-49.762767	98.102339	-188.872681	297.325680	47.844303	-245.530107	-9.957551	1027.162487	-261.863349	343.806444	1015.853796	-280.997008	-137.731319	779.452021	-204.561303	420.478432	739.606318	-272.691005	-126.181085	646.627147	-424.149275	374.657664	593.188928	-478.119839
922	9.21000	189.925871	641.225939	4.205815	162.578480	1069.991150	-315.670749	161.859261	1144.325750	-469.955301	110.645212	642.713153	9.097914	269.206451	639.738727	-0.686228	-24.122839	439.607091	-316.736576	333.388455	426.008944	-349.203436	17.631777	174.813932	-39.215767	297.385016	145.026466	-89.045654	30.190034	144.066330	8.361354	292.386317	116.426930	-37.585072	-54.570893	98.162340	-185.352156	296.346693	47.890289	-244.445854	-12.187221	1037.289257	-258.574981	341.985341	1027.116873	-278.526998	-139.121906	789.062944	-201.119893	418.009239	750.535939	-269.087651	-128.008493	655.217177	-419.980527	371.748686	603.564333	-473.849165
923	9.22000	188.862291	650.407015	6.319957	160.384102	1081.268245	-312.796057	159.427371	1156.586945	-466.822458	109.725250	651.989005	11.406206	267.999218	648.825030	1.233798	-26.192354	442.249518	-310.346471	330.370089	429.553584	-344.331008	13.502376	174.141021	-35.247024	295.910165	144.712337	-87.253848	25.995190	142.990405	12.113691	291.008609	115.672517	-36.008544	-59.379019	98.222341	-181.831631	295.367706	47.936275	-243.361600	-14.416892	1047.416027	-255.286613	340.164238	1038.379949	-276.056988	-140.512492	798.673866	-197.678482	415.540047	761.465560	-265.484297	-129.835902	663.807206	-415.811780	368.839708	613.939739	-469.578492
924	9.23000	187.798711	659.588092	8.434100	158.189723	1092.545340	-309.921364	156.995482	1168.848139	-463.689614	108.805288	661.264858	13.714497	266.791985	657.911332	3.153825	-28.261870	444.891945	-303.956365	327.351724	433.098224	-339.458579	9.372974	173.468109	-31.278281	294.435314	144.398208	-85.462042	21.800346	141.914481	15.866029	289.630901	114.918103	-34.432015	-64.187144	98.282343	-178.311107	294.388719	47.982261	-242.277346	-16.646563	1057.542798	-251.998244	338.343135	1049.643026	-273.586979	-141.903079	808.284788	-194.237072	413.070854	772.395181	-261.880943	-131.663310	672.397236	-411.643032	365.930730	624.315144	-465.307818
925	9.24000	186.735130	668.769169	10.548242	155.995345	1103.822435	-307.046672	154.563593	1181.109334	-460.556771	107.885327	670.540710	16.022789	265.584751	666.997635	5.073851	-30.331385	447.534371	-297.566260	324.333358	436.642864	-334.586150	5.243572	172.795198	-27.309538	292.960463	144.084078	-83.670236	17.605502	140.838556	19.618366	288.253193	114.163690	-32.855487	-68.995270	98.342344	-174.790582	293.409732	48.028248	-241.193092	-18.876234	1067.669568	-248.709876	336.522032	1060.906102	-271.116969	-143.293665	817.895711	-190.795662	410.601662	783.324801	-258.277590	-133.490718	680.987266	-407.474284	363.021752	634.690549	-461.037145
926	9.25000	184.360979	677.712461	13.048181	152.894739	1115.741694	-302.150809	150.754496	1194.450043	-455.179987	105.613054	679.585166	18.622898	263.108736	675.839762	7.473604	-33.386372	450.030790	-289.579786	320.563956	439.233261	-327.214212	0.478012	172.231367	-22.508508	289.942094	143.639438	-79.959433	12.818764	139.946509	24.176501	285.221144	113.392609	-29.396182	-73.943459	98.119303	-170.413540	290.777068	47.761837	-237.999337	-21.973013	1078.412794	-243.573650	333.827080	1072.710661	-266.650416	-145.526145	827.812324	-186.609288	407.371055	794.844134	-253.702262	-135.875678	690.285797	-403.047113	358.619401	645.790506	-456.084841
927	9.26000	181.986827	686.655752	15.548121	149.794134	1127.660953	-297.254945	146.945399	1207.790752	-449.803204	103.340782	688.629622	21.223006	260.632721	684.681888	9.873356	-36.441359	452.527208	-281.593311	316.794553	441.823658	-319.842273	-4.287549	171.667536	-17.707478	286.923726	143.194799	-76.248629	8.032027	139.054462	28.734637	282.189095	112.621529	-25.936876	-78.891648	97.896261	-166.036498	288.144403	47.495427	-234.805581	-25.069792	1089.156019	-238.437424	331.132127	1084.515219	-262.183863	-147.758625	837.728937	-182.422914	404.140448	806.363467	-249.126934	-138.260638	699.584328	-398.619942	354.217051	656.890463	-451.132537
928	9.27000	179.612675	695.599044	18.048060	146.693528	1139.580213	-292.359081	143.136302	1221.131461	-444.426420	101.068510	697.674079	23.823115	258.156706	693.524015	12.273108	-39.496346	455.023627	-273.606837	313.025151	444.414055	-312.470335	-9.053110	171.103705	-12.906447	283.905357	142.750159	-72.537826	3.245289	138.162415	33.292772	279.157046	111.850448	-22.477571	-83.839837	97.673219	-161.659455	285.511739	47.229016	-231.611826	-28.166571	1099.899245	-233.301198	328.437175	1096.319777	-257.717310	-149.991104	847.645550	-178.236541	400.909842	817.882799	-244.551606	-140.645599	708.882860	-394.192770	349.814700	667.990419	-446.180233
929	9.28000	177.238523	704.542336	20.548000	143.592922	1151.499472	-287.463217	139.327206	1234.472170	-439.049637	98.796238	706.718535	26.423223	255.680691	702.366142	14.672861	-42.551332	457.520046	-265.620363	309.255749	447.004452	-305.098396	-13.818671	170.539874	-8.105417	280.886988	142.305519	-68.827022	-1.541449	137.270368	37.850908	276.124998	111.079368	-19.018266	-88.788026	97.450177	-157.282413	282.879075	46.962606	-228.418071	-31.263350	1110.642471	-228.164972	325.742222	1108.124336	-253.250757	-152.223584	857.562163	-174.050167	397.679235	829.402132	-239.976278	-143.030559	718.181391	-389.765599	345.412349	679.090376	-441.227929
